<?xml version="1.0" encoding="UTF-8" standalone="no"?>
<!-- Created with Inkscape (http://www.inkscape.org/) -->

<svg
   xmlns:dc="http://purl.org/dc/elements/1.1/"
   xmlns:cc="http://creativecommons.org/ns#"
   xmlns:rdf="http://www.w3.org/1999/02/22-rdf-syntax-ns#"
   xmlns:svg="http://www.w3.org/2000/svg"
   xmlns="http://www.w3.org/2000/svg"
   xmlns:xlink="http://www.w3.org/1999/xlink"
   xmlns:sodipodi="http://sodipodi.sourceforge.net/DTD/sodipodi-0.dtd"
   xmlns:inkscape="http://www.inkscape.org/namespaces/inkscape"
   width="30"
   height="30"
   id="svg10339"
   version="1.1"
   inkscape:version="0.48+devel r10008 custom"
   sodipodi:docname="fancy_closebox.svg">
  <defs
     id="defs10341">
    <filter
       color-interpolation-filters="sRGB"
       height="1.24"
       y="-0.12"
       width="1.24"
       x="-0.12"
       id="filter27236"
       inkscape:collect="always">
      <feGaussianBlur
         id="feGaussianBlur27238"
         stdDeviation="1.9"
         inkscape:collect="always" />
    </filter>
    <radialGradient
       inkscape:collect="always"
       xlink:href="#linearGradient22968-2-3"
       id="radialGradient24156"
       gradientUnits="userSpaceOnUse"
       cx="797"
       cy="165"
       fx="797"
       fy="165"
       r="20.5" />
    <linearGradient
       id="linearGradient22968-2-3"
       inkscape:collect="always">
      <stop
         id="stop22970-0-16"
         offset="0"
         style="stop-color:#ececec;stop-opacity:1" />
      <stop
         id="stop22972-8-3"
         offset="1"
         style="stop-color:#b7b7b7;stop-opacity:1" />
    </linearGradient>
    <linearGradient
       inkscape:collect="always"
       xlink:href="#linearGradient27291"
       id="linearGradient24158"
       gradientUnits="userSpaceOnUse"
       x1="47.785088"
       y1="765.23883"
       x2="47.785088"
       y2="770.78412" />
    <linearGradient
       id="linearGradient27291"
       inkscape:collect="always">
      <stop
         id="stop27293"
         offset="0"
         style="stop-color:#000000;stop-opacity:1" />
      <stop
         id="stop27295"
         offset="1"
         style="stop-color:#f6a20a;stop-opacity:1" />
    </linearGradient>
    <clipPath
       id="clipPath27307"
       clipPathUnits="userSpaceOnUse">
      <path
         transform="matrix(0.88410615,0,0,0.88410615,92.255124,19.051446)"
         d="m 806,169.78125 a 9.96875,9.96875 0 1 1 -19.9375,0 9.96875,9.96875 0 1 1 19.9375,0 z"
         sodipodi:ry="9.96875"
         sodipodi:rx="9.96875"
         sodipodi:cy="169.78125"
         sodipodi:cx="796.03125"
         id="path27309"
         style="opacity:0.5;color:#000000;fill:#000000;fill-opacity:1;fill-rule:nonzero;stroke:#000000;stroke-width:3.39325762;stroke-linecap:butt;stroke-linejoin:miter;stroke-miterlimit:4;stroke-opacity:1;stroke-dasharray:none;stroke-dashoffset:0;marker:none;visibility:visible;display:inline;overflow:visible;enable-background:accumulate"
         sodipodi:type="arc" />
    </clipPath>
    <filter
       color-interpolation-filters="sRGB"
       id="filter27327"
       inkscape:collect="always">
      <feGaussianBlur
         id="feGaussianBlur27329"
         stdDeviation="0.598125"
         inkscape:collect="always" />
    </filter>
  </defs>
  <sodipodi:namedview
     id="base"
     pagecolor="#ffffff"
     bordercolor="#666666"
     borderopacity="1.0"
     inkscape:pageopacity="0.0"
     inkscape:pageshadow="2"
     inkscape:zoom="1"
     inkscape:cx="17.074108"
     inkscape:cy="19.036903"
     inkscape:document-units="px"
     inkscape:current-layer="g24145"
     showgrid="false"
     fit-margin-top="0"
     fit-margin-left="0"
     fit-margin-right="0"
     fit-margin-bottom="0"
     borderlayer="true"
     inkscape:showpageshadow="false"
     inkscape:window-width="1435"
     inkscape:window-height="996"
     inkscape:window-x="1600"
     inkscape:window-y="0"
     inkscape:window-maximized="0">
    <inkscape:grid
       type="xygrid"
       id="grid10467"
       empspacing="5"
       visible="true"
       enabled="true"
       snapvisiblegridlinesonly="true" />
  </sodipodi:namedview>
  <metadata
     id="metadata10344">
    <rdf:RDF>
      <cc:Work
         rdf:about="">
        <dc:format>image/svg+xml</dc:format>
        <dc:type
           rdf:resource="http://purl.org/dc/dcmitype/StillImage" />
        <dc:title></dc:title>
      </cc:Work>
    </rdf:RDF>
  </metadata>
  <g
     inkscape:label="Layer 1"
     inkscape:groupmode="layer"
     id="layer1"
     transform="translate(-439.59356,-571.34006)">
    <g
       style="display:inline"
       id="g24145"
       transform="matrix(0.82895116,0,0,0.82895116,-230.39975,256.03925)">
      <g
         id="g27242"
         transform="matrix(0.68076616,0,0,0.68076616,284.42937,281.22745)"
         style="display:inline">
        <path
           transform="translate(0,3)"
           d="m 797,151 c -10.49341,0 -19,8.50659 -19,19 0,10.49341 8.50659,19 19,19 10.49341,0 19,-8.50659 19,-19 0,-10.49341 -8.50659,-19 -19,-19 z"
           inkscape:href="#path27224"
           id="path27228"
           style="opacity:0.5;color:#000000;fill:#000000;fill-opacity:1;fill-rule:nonzero;stroke:#000000;stroke-width:5.31611443;stroke-linecap:butt;stroke-linejoin:miter;stroke-miterlimit:4;stroke-opacity:1;stroke-dasharray:none;stroke-dashoffset:0;marker:none;visibility:visible;display:inline;overflow:visible;filter:url(#filter27236);enable-background:accumulate"
           xlink:href="#path27224"
           inkscape:original="M 797 151 C 786.50659 151 778 159.50659 778 170 C 778 180.49341 786.50659 189 797 189 C 807.49341 189 816 180.49341 816 170 C 816 159.50659 807.49341 151 797 151 z "
           inkscape:radius="0"
           sodipodi:type="inkscape:offset" />
        <path
           d="m 816,170 c 0,10.49341 -8.50659,19 -19,19 -10.49341,0 -19,-8.50659 -19,-19 0,-10.49341 8.50659,-19 19,-19 10.49341,0 19,8.50659 19,19 z"
           sodipodi:ry="19"
           sodipodi:rx="19"
           sodipodi:cy="170"
           sodipodi:cx="797"
           id="path27224"
           style="color:#000000;fill:url(#radialGradient24156);fill-opacity:1;fill-rule:nonzero;stroke:#ffffff;stroke-width:5.31611443;stroke-linecap:butt;stroke-linejoin:miter;stroke-miterlimit:4;stroke-opacity:1;stroke-dasharray:none;stroke-dashoffset:0;marker:none;visibility:visible;display:inline;overflow:visible;enable-background:accumulate"
           sodipodi:type="arc" />
      </g>
      <g
         transform="matrix(1.3588883,0,0,1.3588883,816.09176,387.04472)"
         style="fill:#ffffff;fill-opacity:1;display:inline"
         id="g27275"
         inkscape:label="window-close">
        <g
           style="fill:#ffffff;fill-opacity:1;display:inline"
           id="g27277"
           transform="translate(-41,-760)">
          <path
             sodipodi:nodetypes="ccsccccccccccccccccccccccc"
             style="font-size:medium;font-style:normal;font-variant:normal;font-weight:normal;font-stretch:normal;text-indent:0;text-align:start;text-decoration:none;line-height:normal;letter-spacing:normal;word-spacing:normal;text-transform:none;direction:ltr;block-progression:tb;writing-mode:lr-tb;text-anchor:start;color:#bebebe;fill:#ffffff;fill-opacity:1;fill-rule:nonzero;stroke:none;stroke-width:1.78124988;marker:none;visibility:visible;display:inline;overflow:visible;enable-background:new;font-family:Andale Mono;-inkscape-font-specification:Andale Mono"
             id="path27279"
             inkscape:connector-curvature="0"
             d="m 45,764 1,0 c 0.01037,-1.2e-4 0.02079,-4.6e-4 0.03125,0 0.254951,0.0112 0.50987,0.12858 0.6875,0.3125 L 49,766.59375 51.3125,764.3125 C 51.578125,764.082 51.759172,764.007 52,764 l 1,0 0,1 c 0,0.28647 -0.03434,0.55065 -0.25,0.75 l -2.28125,2.28125 2.25,2.25 C 52.906938,770.46942 52.999992,770.7347 53,771 l 0,1 -1,0 c -0.265301,-10e-6 -0.530586,-0.0931 -0.71875,-0.28125 L 49,769.4375 46.71875,771.71875 C 46.530586,771.90694 46.26529,772 46,772 l -1,0 0,-1 c -3e-6,-0.26529 0.09306,-0.53058 0.28125,-0.71875 l 2.28125,-2.25 L 45.28125,765.75 C 45.070508,765.55537 44.97809,765.28075 45,765 l 0,-1 z" />
        </g>
      </g>
      <g
         style="fill:url(#linearGradient24158);fill-opacity:1;display:inline"
         id="layer4-4-1"
         transform="matrix(1.3588883,0,0,1.3588883,760.37733,-646.95626)">
        <path
           sodipodi:nodetypes="ccsccccccccccccccccccccccc"
           style="font-size:medium;font-style:normal;font-variant:normal;font-weight:normal;font-stretch:normal;text-indent:0;text-align:start;text-decoration:none;line-height:normal;letter-spacing:normal;word-spacing:normal;text-transform:none;direction:ltr;block-progression:tb;writing-mode:lr-tb;text-anchor:start;color:#bebebe;fill:#221e1f;fill-opacity:1;fill-rule:nonzero;stroke:none;stroke-width:1.78124988;marker:none;visibility:visible;display:inline;overflow:visible;enable-background:new;font-family:Andale Mono;-inkscape-font-specification:Andale Mono"
           id="path10839-9"
           inkscape:connector-curvature="0"
           d="m 45,764 1,0 c 0.01037,-1.2e-4 0.02079,-4.6e-4 0.03125,0 0.254951,0.0112 0.50987,0.12858 0.6875,0.3125 L 49,766.59375 51.3125,764.3125 C 51.578125,764.082 51.759172,764.007 52,764 l 1,0 0,1 c 0,0.28647 -0.03434,0.55065 -0.25,0.75 l -2.28125,2.28125 2.25,2.25 C 52.906938,770.46942 52.999992,770.7347 53,771 l 0,1 -1,0 c -0.265301,-10e-6 -0.530586,-0.0931 -0.71875,-0.28125 L 49,769.4375 46.71875,771.71875 C 46.530586,771.90694 46.26529,772 46,772 l -1,0 0,-1 c -3e-6,-0.26529 0.09306,-0.53058 0.28125,-0.71875 l 2.28125,-2.25 L 45.28125,765.75 C 45.070508,765.55537 44.97809,765.28075 45,765 l 0,-1 z" />
      </g>
      <path
         transform="matrix(1.2980358,0,0,1.2980358,-206.24585,177.33558)"
         d="m 806,169.78125 c 0,5.50559 -4.46316,9.96875 -9.96875,9.96875 -5.50559,0 -9.96875,-4.46316 -9.96875,-9.96875 0,-5.50559 4.46316,-9.96875 9.96875,-9.96875 5.50559,0 9.96875,4.46316 9.96875,9.96875 z"
         sodipodi:ry="9.96875"
         sodipodi:rx="9.96875"
         sodipodi:cy="169.78125"
         sodipodi:cx="796.03125"
         id="path27301"
         style="opacity:0.5;color:#000000;fill:none;stroke:#000000;stroke-width:2.78808236;stroke-linecap:butt;stroke-linejoin:miter;stroke-miterlimit:4;stroke-opacity:1;stroke-dasharray:none;stroke-dashoffset:0;marker:none;visibility:visible;display:inline;overflow:visible;filter:url(#filter27327);enable-background:accumulate"
         sodipodi:type="arc"
         clip-path="url(#clipPath27307)" />
    </g>
  </g>
</svg>
